<mxfile host="app.diagrams.net" modified="2022-10-27T08:59:13.389Z" agent="5.0 (Macintosh; Intel Mac OS X 10_15_6) AppleWebKit/537.36 (KHTML, like Gecko) Chrome/106.0.0.0 Safari/537.36" etag="RcmjQY-qiRaUeo1sUfTT" version="17.4.6" type="github">
  <diagram name="Page-1" id="13e1069c-82ec-6db2-03f1-153e76fe0fe0">
    <mxGraphModel dx="1231" dy="685" grid="1" gridSize="10" guides="1" tooltips="1" connect="1" arrows="1" fold="1" page="1" pageScale="1" pageWidth="1100" pageHeight="850" background="none" math="0" shadow="0">
      <root>
        <mxCell id="0" />
        <mxCell id="1" parent="0" />
        <mxCell id="7baba1c4bc27f4b0-2" value="收银台服务" style="shape=umlLifeline;perimeter=lifelinePerimeter;whiteSpace=wrap;html=1;container=1;collapsible=0;recursiveResize=0;outlineConnect=0;rounded=1;shadow=0;comic=0;labelBackgroundColor=none;strokeWidth=1;fontFamily=Verdana;fontSize=12;align=center;" parent="1" vertex="1">
          <mxGeometry x="220" y="80" width="175" height="1470" as="geometry" />
        </mxCell>
        <mxCell id="7baba1c4bc27f4b0-10" value="" style="html=1;points=[];perimeter=orthogonalPerimeter;rounded=0;shadow=0;comic=0;labelBackgroundColor=none;strokeWidth=1;fontFamily=Verdana;fontSize=12;align=center;" parent="7baba1c4bc27f4b0-2" vertex="1">
          <mxGeometry x="82" y="100" width="10" height="450" as="geometry" />
        </mxCell>
        <mxCell id="xyKEQfK3_lfIhWD5vXNs-5" value="渲染收银台" style="text;html=1;strokeColor=none;fillColor=none;align=center;verticalAlign=middle;whiteSpace=wrap;rounded=0;" vertex="1" parent="7baba1c4bc27f4b0-2">
          <mxGeometry x="70" y="225" width="100" height="30" as="geometry" />
        </mxCell>
        <mxCell id="xyKEQfK3_lfIhWD5vXNs-7" value="去支付" style="text;html=1;strokeColor=none;fillColor=none;align=center;verticalAlign=middle;whiteSpace=wrap;rounded=0;" vertex="1" parent="7baba1c4bc27f4b0-2">
          <mxGeometry x="110" y="270" width="60" height="30" as="geometry" />
        </mxCell>
        <mxCell id="xyKEQfK3_lfIhWD5vXNs-12" value="" style="html=1;points=[];perimeter=orthogonalPerimeter;" vertex="1" parent="7baba1c4bc27f4b0-2">
          <mxGeometry x="85" y="335" width="10" height="40" as="geometry" />
        </mxCell>
        <mxCell id="xyKEQfK3_lfIhWD5vXNs-13" value="&lt;font color=&quot;#ff6666&quot;&gt;查询用户&lt;br&gt;微企付openid，&lt;br&gt;不存在则落库&lt;br&gt;用户id&lt;/font&gt;" style="edgeStyle=orthogonalEdgeStyle;html=1;align=left;spacingLeft=2;endArrow=block;rounded=0;entryX=1;entryY=0;" edge="1" target="xyKEQfK3_lfIhWD5vXNs-12" parent="7baba1c4bc27f4b0-2">
          <mxGeometry relative="1" as="geometry">
            <mxPoint x="90" y="315" as="sourcePoint" />
            <Array as="points">
              <mxPoint x="120" y="315" />
            </Array>
          </mxGeometry>
        </mxCell>
        <mxCell id="xyKEQfK3_lfIhWD5vXNs-24" value="" style="html=1;verticalAlign=bottom;endArrow=open;dashed=1;endSize=8;rounded=0;exitX=0.1;exitY=0.744;exitDx=0;exitDy=0;exitPerimeter=0;" edge="1" parent="7baba1c4bc27f4b0-2" source="7baba1c4bc27f4b0-16">
          <mxGeometry relative="1" as="geometry">
            <mxPoint x="170" y="490" as="sourcePoint" />
            <mxPoint x="90" y="490" as="targetPoint" />
          </mxGeometry>
        </mxCell>
        <mxCell id="7baba1c4bc27f4b0-3" value="收银台H5" style="shape=umlLifeline;perimeter=lifelinePerimeter;whiteSpace=wrap;html=1;container=1;collapsible=0;recursiveResize=0;outlineConnect=0;rounded=1;shadow=0;comic=0;labelBackgroundColor=none;strokeWidth=1;fontFamily=Verdana;fontSize=12;align=center;" parent="1" vertex="1">
          <mxGeometry x="400" y="80" width="100" height="1470" as="geometry" />
        </mxCell>
        <mxCell id="7baba1c4bc27f4b0-13" value="" style="html=1;points=[];perimeter=orthogonalPerimeter;rounded=0;shadow=0;comic=0;labelBackgroundColor=none;strokeWidth=1;fontFamily=Verdana;fontSize=12;align=center;" parent="7baba1c4bc27f4b0-3" vertex="1">
          <mxGeometry x="45" y="210" width="10" height="430" as="geometry" />
        </mxCell>
        <mxCell id="xyKEQfK3_lfIhWD5vXNs-34" value="&lt;font color=&quot;#000000&quot;&gt;return&lt;/font&gt;" style="html=1;verticalAlign=bottom;endArrow=open;dashed=1;endSize=8;rounded=0;fontColor=#FF6666;exitX=-0.247;exitY=0.949;exitDx=0;exitDy=0;exitPerimeter=0;" edge="1" parent="7baba1c4bc27f4b0-3">
          <mxGeometry relative="1" as="geometry">
            <mxPoint x="611.53" y="623.27" as="sourcePoint" />
            <mxPoint x="59" y="625" as="targetPoint" />
          </mxGeometry>
        </mxCell>
        <mxCell id="xyKEQfK3_lfIhWD5vXNs-62" value="" style="html=1;points=[];perimeter=orthogonalPerimeter;fontColor=#FF6666;" vertex="1" parent="7baba1c4bc27f4b0-3">
          <mxGeometry x="45" y="1060" width="10" height="80" as="geometry" />
        </mxCell>
        <mxCell id="xyKEQfK3_lfIhWD5vXNs-63" value="" style="html=1;verticalAlign=bottom;endArrow=open;dashed=1;endSize=8;rounded=0;fontColor=#FF6666;" edge="1" parent="7baba1c4bc27f4b0-3">
          <mxGeometry relative="1" as="geometry">
            <mxPoint x="322.4999999999998" y="1090.0000000000002" as="sourcePoint" />
            <mxPoint x="53" y="1090" as="targetPoint" />
          </mxGeometry>
        </mxCell>
        <mxCell id="7baba1c4bc27f4b0-4" value="支付系统" style="shape=umlLifeline;perimeter=lifelinePerimeter;whiteSpace=wrap;html=1;container=1;collapsible=0;recursiveResize=0;outlineConnect=0;rounded=1;shadow=0;comic=0;labelBackgroundColor=none;strokeWidth=1;fontFamily=Verdana;fontSize=12;align=center;" parent="1" vertex="1">
          <mxGeometry x="540" y="80" width="100" height="1470" as="geometry" />
        </mxCell>
        <mxCell id="xyKEQfK3_lfIhWD5vXNs-14" value="" style="endArrow=classic;html=1;rounded=0;" edge="1" parent="7baba1c4bc27f4b0-4">
          <mxGeometry width="50" height="50" relative="1" as="geometry">
            <mxPoint x="61" y="377" as="sourcePoint" />
            <mxPoint x="180.5" y="377" as="targetPoint" />
          </mxGeometry>
        </mxCell>
        <mxCell id="xyKEQfK3_lfIhWD5vXNs-23" value="return" style="html=1;verticalAlign=bottom;endArrow=open;dashed=1;endSize=8;rounded=0;exitX=-0.488;exitY=0.673;exitDx=0;exitDy=0;exitPerimeter=0;" edge="1" parent="7baba1c4bc27f4b0-4" source="7baba1c4bc27f4b0-19">
          <mxGeometry relative="1" as="geometry">
            <mxPoint x="140" y="490" as="sourcePoint" />
            <mxPoint x="60" y="490" as="targetPoint" />
          </mxGeometry>
        </mxCell>
        <mxCell id="xyKEQfK3_lfIhWD5vXNs-37" value="" style="html=1;points=[];perimeter=orthogonalPerimeter;fontColor=#000000;" vertex="1" parent="7baba1c4bc27f4b0-4">
          <mxGeometry x="45" y="680" width="10" height="170" as="geometry" />
        </mxCell>
        <mxCell id="xyKEQfK3_lfIhWD5vXNs-38" value="" style="html=1;points=[];perimeter=orthogonalPerimeter;fontColor=#000000;" vertex="1" parent="7baba1c4bc27f4b0-4">
          <mxGeometry x="49" y="720" width="10" height="40" as="geometry" />
        </mxCell>
        <mxCell id="xyKEQfK3_lfIhWD5vXNs-39" value="查询支付结果" style="edgeStyle=orthogonalEdgeStyle;html=1;align=left;spacingLeft=2;endArrow=block;rounded=0;entryX=1;entryY=0;fontColor=#000000;" edge="1" target="xyKEQfK3_lfIhWD5vXNs-38" parent="7baba1c4bc27f4b0-4">
          <mxGeometry relative="1" as="geometry">
            <mxPoint x="54" y="700" as="sourcePoint" />
            <Array as="points">
              <mxPoint x="84" y="700" />
            </Array>
          </mxGeometry>
        </mxCell>
        <mxCell id="xyKEQfK3_lfIhWD5vXNs-43" value="return" style="html=1;verticalAlign=bottom;endArrow=open;dashed=1;endSize=8;rounded=0;fontColor=#000000;exitX=-0.324;exitY=0.653;exitDx=0;exitDy=0;exitPerimeter=0;" edge="1" parent="7baba1c4bc27f4b0-4" source="xyKEQfK3_lfIhWD5vXNs-40">
          <mxGeometry relative="1" as="geometry">
            <mxPoint x="137" y="779" as="sourcePoint" />
            <mxPoint x="57" y="779" as="targetPoint" />
          </mxGeometry>
        </mxCell>
        <mxCell id="xyKEQfK3_lfIhWD5vXNs-53" value="" style="html=1;points=[];perimeter=orthogonalPerimeter;fontColor=#000000;" vertex="1" parent="7baba1c4bc27f4b0-4">
          <mxGeometry x="45" y="890" width="10" height="150" as="geometry" />
        </mxCell>
        <mxCell id="xyKEQfK3_lfIhWD5vXNs-54" value="" style="html=1;verticalAlign=bottom;endArrow=open;dashed=1;endSize=8;rounded=0;fontColor=#000000;" edge="1" parent="7baba1c4bc27f4b0-4">
          <mxGeometry relative="1" as="geometry">
            <mxPoint x="320" y="940" as="sourcePoint" />
            <mxPoint x="200" y="940" as="targetPoint" />
          </mxGeometry>
        </mxCell>
        <mxCell id="xyKEQfK3_lfIhWD5vXNs-57" value="处理支付单" style="html=1;verticalAlign=bottom;endArrow=open;dashed=1;endSize=8;rounded=0;fontColor=#000000;" edge="1" parent="7baba1c4bc27f4b0-4">
          <mxGeometry relative="1" as="geometry">
            <mxPoint x="180" y="950" as="sourcePoint" />
            <mxPoint x="60" y="950" as="targetPoint" />
          </mxGeometry>
        </mxCell>
        <mxCell id="xyKEQfK3_lfIhWD5vXNs-68" value="" style="html=1;points=[];perimeter=orthogonalPerimeter;fontColor=#000000;" vertex="1" parent="7baba1c4bc27f4b0-4">
          <mxGeometry x="45" y="1180" width="10" height="80" as="geometry" />
        </mxCell>
        <mxCell id="xyKEQfK3_lfIhWD5vXNs-73" value="return" style="html=1;verticalAlign=bottom;endArrow=open;dashed=1;endSize=8;rounded=0;fontColor=#000000;exitX=-0.138;exitY=0.688;exitDx=0;exitDy=0;exitPerimeter=0;" edge="1" parent="7baba1c4bc27f4b0-4">
          <mxGeometry relative="1" as="geometry">
            <mxPoint x="320.62000000000035" y="1248.8" as="sourcePoint" />
            <mxPoint x="57" y="1250" as="targetPoint" />
          </mxGeometry>
        </mxCell>
        <mxCell id="7baba1c4bc27f4b0-5" value="支付渠道" style="shape=umlLifeline;perimeter=lifelinePerimeter;whiteSpace=wrap;html=1;container=1;collapsible=0;recursiveResize=0;outlineConnect=0;rounded=1;shadow=0;comic=0;labelBackgroundColor=none;strokeWidth=1;fontFamily=Verdana;fontSize=12;align=center;" parent="1" vertex="1">
          <mxGeometry x="680" y="80" width="100" height="1470" as="geometry" />
        </mxCell>
        <mxCell id="xyKEQfK3_lfIhWD5vXNs-15" value="" style="html=1;points=[];perimeter=orthogonalPerimeter;" vertex="1" parent="7baba1c4bc27f4b0-5">
          <mxGeometry x="50" y="410" width="10" height="40" as="geometry" />
        </mxCell>
        <mxCell id="xyKEQfK3_lfIhWD5vXNs-16" value="根据是否&lt;br&gt;存在openid&lt;br&gt;调用不同&lt;br&gt;下单接口&lt;br&gt;" style="edgeStyle=orthogonalEdgeStyle;html=1;align=left;spacingLeft=2;endArrow=block;rounded=0;entryX=1;entryY=0;" edge="1" target="xyKEQfK3_lfIhWD5vXNs-15" parent="7baba1c4bc27f4b0-5">
          <mxGeometry relative="1" as="geometry">
            <mxPoint x="55" y="390" as="sourcePoint" />
            <Array as="points">
              <mxPoint x="85" y="390" />
            </Array>
          </mxGeometry>
        </mxCell>
        <mxCell id="xyKEQfK3_lfIhWD5vXNs-22" value="return" style="html=1;verticalAlign=bottom;endArrow=open;dashed=1;endSize=8;rounded=0;" edge="1" parent="7baba1c4bc27f4b0-5" source="7baba1c4bc27f4b0-6">
          <mxGeometry relative="1" as="geometry">
            <mxPoint x="140" y="490" as="sourcePoint" />
            <mxPoint x="60" y="490" as="targetPoint" />
          </mxGeometry>
        </mxCell>
        <mxCell id="xyKEQfK3_lfIhWD5vXNs-55" value="" style="html=1;points=[];perimeter=orthogonalPerimeter;fontColor=#000000;" vertex="1" parent="7baba1c4bc27f4b0-5">
          <mxGeometry x="45" y="920" width="10" height="220" as="geometry" />
        </mxCell>
        <mxCell id="xyKEQfK3_lfIhWD5vXNs-60" value="" style="html=1;points=[];perimeter=orthogonalPerimeter;fontColor=#000000;" vertex="1" parent="7baba1c4bc27f4b0-5">
          <mxGeometry x="55" y="1062" width="10" height="30" as="geometry" />
        </mxCell>
        <mxCell id="xyKEQfK3_lfIhWD5vXNs-61" value="&lt;font color=&quot;#ff6666&quot;&gt;同步微企付&lt;br&gt;openid给&lt;br&gt;收银台，绑定&lt;br&gt;汽配龙用户和&lt;br&gt;openid关系&lt;/font&gt;" style="edgeStyle=orthogonalEdgeStyle;html=1;align=left;spacingLeft=2;endArrow=block;rounded=0;entryX=1;entryY=0;fontColor=#000000;" edge="1" target="xyKEQfK3_lfIhWD5vXNs-60" parent="7baba1c4bc27f4b0-5">
          <mxGeometry relative="1" as="geometry">
            <mxPoint x="60" y="1042" as="sourcePoint" />
            <Array as="points">
              <mxPoint x="90" y="1042" />
            </Array>
          </mxGeometry>
        </mxCell>
        <mxCell id="7baba1c4bc27f4b0-6" value="微企付后台" style="shape=umlLifeline;perimeter=lifelinePerimeter;whiteSpace=wrap;html=1;container=1;collapsible=0;recursiveResize=0;outlineConnect=0;rounded=1;shadow=0;comic=0;labelBackgroundColor=none;strokeWidth=1;fontFamily=Verdana;fontSize=12;align=center;" parent="1" vertex="1">
          <mxGeometry x="820" y="80" width="100" height="1480" as="geometry" />
        </mxCell>
        <mxCell id="xyKEQfK3_lfIhWD5vXNs-17" value="" style="html=1;points=[];perimeter=orthogonalPerimeter;" vertex="1" parent="7baba1c4bc27f4b0-6">
          <mxGeometry x="45" y="400" width="10" height="180" as="geometry" />
        </mxCell>
        <mxCell id="xyKEQfK3_lfIhWD5vXNs-40" value="" style="html=1;points=[];perimeter=orthogonalPerimeter;fontColor=#000000;" vertex="1" parent="7baba1c4bc27f4b0-6">
          <mxGeometry x="44" y="700" width="10" height="120" as="geometry" />
        </mxCell>
        <mxCell id="xyKEQfK3_lfIhWD5vXNs-48" value="" style="html=1;points=[];perimeter=orthogonalPerimeter;fontColor=#000000;" vertex="1" parent="7baba1c4bc27f4b0-6">
          <mxGeometry x="45" y="890" width="10" height="150" as="geometry" />
        </mxCell>
        <mxCell id="xyKEQfK3_lfIhWD5vXNs-51" value="" style="html=1;points=[];perimeter=orthogonalPerimeter;fontColor=#000000;" vertex="1" parent="7baba1c4bc27f4b0-6">
          <mxGeometry x="49" y="930" width="10" height="40" as="geometry" />
        </mxCell>
        <mxCell id="xyKEQfK3_lfIhWD5vXNs-52" value="支付结果&lt;br&gt;回调通知" style="edgeStyle=orthogonalEdgeStyle;html=1;align=left;spacingLeft=2;endArrow=block;rounded=0;entryX=1;entryY=0;fontColor=#000000;" edge="1" target="xyKEQfK3_lfIhWD5vXNs-51" parent="7baba1c4bc27f4b0-6">
          <mxGeometry relative="1" as="geometry">
            <mxPoint x="54" y="910" as="sourcePoint" />
            <Array as="points">
              <mxPoint x="84" y="910" />
            </Array>
          </mxGeometry>
        </mxCell>
        <mxCell id="xyKEQfK3_lfIhWD5vXNs-65" value="" style="html=1;points=[];perimeter=orthogonalPerimeter;fontColor=#000000;" vertex="1" parent="7baba1c4bc27f4b0-6">
          <mxGeometry x="45" y="1170" width="10" height="100" as="geometry" />
        </mxCell>
        <mxCell id="7baba1c4bc27f4b0-8" value="汽配龙app" style="shape=umlLifeline;perimeter=lifelinePerimeter;whiteSpace=wrap;html=1;container=1;collapsible=0;recursiveResize=0;outlineConnect=0;rounded=1;shadow=0;comic=0;labelBackgroundColor=none;strokeWidth=1;fontFamily=Verdana;fontSize=12;align=center;" parent="1" vertex="1">
          <mxGeometry x="70" y="80" width="150" height="1470" as="geometry" />
        </mxCell>
        <mxCell id="7baba1c4bc27f4b0-9" value="" style="html=1;points=[];perimeter=orthogonalPerimeter;rounded=0;shadow=0;comic=0;labelBackgroundColor=none;strokeWidth=1;fontFamily=Verdana;fontSize=12;align=center;" parent="7baba1c4bc27f4b0-8" vertex="1">
          <mxGeometry x="70" y="100" width="10" height="440" as="geometry" />
        </mxCell>
        <mxCell id="xyKEQfK3_lfIhWD5vXNs-3" value="返回结果" style="text;html=1;strokeColor=none;fillColor=none;align=center;verticalAlign=middle;whiteSpace=wrap;rounded=0;" vertex="1" parent="7baba1c4bc27f4b0-8">
          <mxGeometry x="110" y="120" width="60" height="30" as="geometry" />
        </mxCell>
        <mxCell id="xyKEQfK3_lfIhWD5vXNs-44" value="" style="html=1;points=[];perimeter=orthogonalPerimeter;fontColor=#000000;" vertex="1" parent="7baba1c4bc27f4b0-8">
          <mxGeometry x="70" y="740" width="10" height="180" as="geometry" />
        </mxCell>
        <mxCell id="xyKEQfK3_lfIhWD5vXNs-67" value="" style="html=1;points=[];perimeter=orthogonalPerimeter;fontColor=#000000;" vertex="1" parent="7baba1c4bc27f4b0-8">
          <mxGeometry x="70" y="1170" width="10" height="120" as="geometry" />
        </mxCell>
        <mxCell id="xyKEQfK3_lfIhWD5vXNs-74" value="return" style="html=1;verticalAlign=bottom;endArrow=open;dashed=1;endSize=8;rounded=0;fontColor=#000000;exitX=-0.292;exitY=0.755;exitDx=0;exitDy=0;exitPerimeter=0;" edge="1" parent="7baba1c4bc27f4b0-8">
          <mxGeometry relative="1" as="geometry">
            <mxPoint x="512.0800000000002" y="1246.3999999999999" as="sourcePoint" />
            <mxPoint x="80" y="1246" as="targetPoint" />
          </mxGeometry>
        </mxCell>
        <mxCell id="7baba1c4bc27f4b0-16" value="" style="html=1;points=[];perimeter=orthogonalPerimeter;rounded=0;shadow=0;comic=0;labelBackgroundColor=none;strokeWidth=1;fontFamily=Verdana;fontSize=12;align=center;" parent="1" vertex="1">
          <mxGeometry x="585" y="360" width="10" height="280" as="geometry" />
        </mxCell>
        <mxCell id="7baba1c4bc27f4b0-19" value="" style="html=1;points=[];perimeter=orthogonalPerimeter;rounded=0;shadow=0;comic=0;labelBackgroundColor=none;strokeWidth=1;fontFamily=Verdana;fontSize=12;align=center;" parent="1" vertex="1">
          <mxGeometry x="725" y="400" width="10" height="250" as="geometry" />
        </mxCell>
        <mxCell id="7baba1c4bc27f4b0-11" value="请求收银台,&lt;br&gt;携带用户id" style="html=1;verticalAlign=bottom;endArrow=block;entryX=0;entryY=0;labelBackgroundColor=none;fontFamily=Verdana;fontSize=12;edgeStyle=elbowEdgeStyle;elbow=vertical;" parent="1" source="7baba1c4bc27f4b0-9" target="7baba1c4bc27f4b0-10" edge="1">
          <mxGeometry relative="1" as="geometry">
            <mxPoint x="220" y="190" as="sourcePoint" />
          </mxGeometry>
        </mxCell>
        <mxCell id="xyKEQfK3_lfIhWD5vXNs-1" value="" style="endArrow=classic;html=1;rounded=0;entryX=1;entryY=0.07;entryDx=0;entryDy=0;entryPerimeter=0;" edge="1" parent="1">
          <mxGeometry width="50" height="50" relative="1" as="geometry">
            <mxPoint x="300" y="228" as="sourcePoint" />
            <mxPoint x="151" y="227.79999999999995" as="targetPoint" />
          </mxGeometry>
        </mxCell>
        <mxCell id="xyKEQfK3_lfIhWD5vXNs-4" value="" style="endArrow=classic;html=1;rounded=0;" edge="1" parent="1">
          <mxGeometry width="50" height="50" relative="1" as="geometry">
            <mxPoint x="150" y="334" as="sourcePoint" />
            <mxPoint x="449.5" y="334" as="targetPoint" />
          </mxGeometry>
        </mxCell>
        <mxCell id="xyKEQfK3_lfIhWD5vXNs-6" value="" style="endArrow=classic;html=1;rounded=0;" edge="1" parent="1">
          <mxGeometry width="50" height="50" relative="1" as="geometry">
            <mxPoint x="442" y="370" as="sourcePoint" />
            <mxPoint x="306.32352941176464" y="370" as="targetPoint" />
          </mxGeometry>
        </mxCell>
        <mxCell id="xyKEQfK3_lfIhWD5vXNs-9" value="" style="endArrow=classic;html=1;rounded=0;" edge="1" parent="1">
          <mxGeometry width="50" height="50" relative="1" as="geometry">
            <mxPoint x="315" y="433" as="sourcePoint" />
            <mxPoint x="581" y="433" as="targetPoint" />
          </mxGeometry>
        </mxCell>
        <mxCell id="xyKEQfK3_lfIhWD5vXNs-11" value="携带openid支付" style="text;html=1;strokeColor=none;fillColor=none;align=center;verticalAlign=middle;whiteSpace=wrap;rounded=0;" vertex="1" parent="1">
          <mxGeometry x="450" y="410" width="100" height="30" as="geometry" />
        </mxCell>
        <mxCell id="xyKEQfK3_lfIhWD5vXNs-18" value="" style="endArrow=classic;html=1;rounded=0;exitX=1.365;exitY=0.694;exitDx=0;exitDy=0;exitPerimeter=0;" edge="1" parent="1">
          <mxGeometry width="50" height="50" relative="1" as="geometry">
            <mxPoint x="741.6499999999999" y="524.76" as="sourcePoint" />
            <mxPoint x="867.5" y="524.76" as="targetPoint" />
          </mxGeometry>
        </mxCell>
        <mxCell id="xyKEQfK3_lfIhWD5vXNs-19" value="支付" style="text;html=1;strokeColor=none;fillColor=none;align=center;verticalAlign=middle;whiteSpace=wrap;rounded=0;" vertex="1" parent="1">
          <mxGeometry x="770" y="520" width="60" height="30" as="geometry" />
        </mxCell>
        <mxCell id="xyKEQfK3_lfIhWD5vXNs-21" value="请求支付渠道" style="text;html=1;strokeColor=none;fillColor=none;align=center;verticalAlign=middle;whiteSpace=wrap;rounded=0;" vertex="1" parent="1">
          <mxGeometry x="650" y="425" width="60" height="30" as="geometry" />
        </mxCell>
        <mxCell id="xyKEQfK3_lfIhWD5vXNs-27" value="return" style="text;html=1;align=center;verticalAlign=middle;resizable=0;points=[];autosize=1;strokeColor=none;fillColor=none;" vertex="1" parent="1">
          <mxGeometry x="355" y="546" width="50" height="20" as="geometry" />
        </mxCell>
        <mxCell id="xyKEQfK3_lfIhWD5vXNs-28" value="" style="endArrow=classic;html=1;rounded=0;entryX=-0.253;entryY=0.93;entryDx=0;entryDy=0;entryPerimeter=0;" edge="1" parent="1">
          <mxGeometry width="50" height="50" relative="1" as="geometry">
            <mxPoint x="308.32352941176464" y="615.5" as="sourcePoint" />
            <mxPoint x="446.47" y="615.5" as="targetPoint" />
          </mxGeometry>
        </mxCell>
        <mxCell id="xyKEQfK3_lfIhWD5vXNs-29" value="返回结果" style="text;html=1;align=center;verticalAlign=middle;resizable=0;points=[];autosize=1;strokeColor=none;fillColor=none;" vertex="1" parent="1">
          <mxGeometry x="340" y="593" width="60" height="20" as="geometry" />
        </mxCell>
        <mxCell id="xyKEQfK3_lfIhWD5vXNs-30" value="微企付收银台" style="shape=umlLifeline;perimeter=lifelinePerimeter;whiteSpace=wrap;html=1;container=1;collapsible=0;recursiveResize=0;outlineConnect=0;rounded=1;shadow=0;comic=0;labelBackgroundColor=none;strokeWidth=1;fontFamily=Verdana;fontSize=12;align=center;" vertex="1" parent="1">
          <mxGeometry x="970" y="80" width="100" height="1490" as="geometry" />
        </mxCell>
        <mxCell id="xyKEQfK3_lfIhWD5vXNs-31" value="" style="html=1;points=[];perimeter=orthogonalPerimeter;" vertex="1" parent="xyKEQfK3_lfIhWD5vXNs-30">
          <mxGeometry x="45" y="400" width="10" height="230" as="geometry" />
        </mxCell>
        <mxCell id="xyKEQfK3_lfIhWD5vXNs-32" value="" style="endArrow=classic;html=1;rounded=0;entryX=0.5;entryY=0.87;entryDx=0;entryDy=0;entryPerimeter=0;" edge="1" parent="1">
          <mxGeometry width="50" height="50" relative="1" as="geometry">
            <mxPoint x="456" y="680" as="sourcePoint" />
            <mxPoint x="1016" y="680.1000000000001" as="targetPoint" />
          </mxGeometry>
        </mxCell>
        <mxCell id="xyKEQfK3_lfIhWD5vXNs-33" value="唤起微企付收银台" style="text;html=1;align=center;verticalAlign=middle;resizable=0;points=[];autosize=1;strokeColor=none;fillColor=none;" vertex="1" parent="1">
          <mxGeometry x="605" y="660" width="110" height="20" as="geometry" />
        </mxCell>
        <mxCell id="xyKEQfK3_lfIhWD5vXNs-41" value="" style="endArrow=classic;html=1;rounded=0;fontColor=#000000;" edge="1" parent="1">
          <mxGeometry width="50" height="50" relative="1" as="geometry">
            <mxPoint x="599" y="829.9999999999998" as="sourcePoint" />
            <mxPoint x="869.5" y="829.9999999999998" as="targetPoint" />
          </mxGeometry>
        </mxCell>
        <mxCell id="xyKEQfK3_lfIhWD5vXNs-42" value="查询" style="text;html=1;align=center;verticalAlign=middle;resizable=0;points=[];autosize=1;strokeColor=none;fillColor=none;fontColor=#000000;" vertex="1" parent="1">
          <mxGeometry x="680" y="806" width="40" height="20" as="geometry" />
        </mxCell>
        <mxCell id="xyKEQfK3_lfIhWD5vXNs-45" value="" style="endArrow=classic;html=1;rounded=0;fontColor=#000000;exitX=-0.016;exitY=0.943;exitDx=0;exitDy=0;exitPerimeter=0;" edge="1" parent="1">
          <mxGeometry width="50" height="50" relative="1" as="geometry">
            <mxPoint x="584.8399999999999" y="884.02" as="sourcePoint" />
            <mxPoint x="144.44736842105272" y="884.02" as="targetPoint" />
          </mxGeometry>
        </mxCell>
        <mxCell id="xyKEQfK3_lfIhWD5vXNs-46" value="支付结果通知" style="text;html=1;align=center;verticalAlign=middle;resizable=0;points=[];autosize=1;strokeColor=none;fillColor=none;fontColor=#000000;" vertex="1" parent="1">
          <mxGeometry x="295" y="860" width="90" height="20" as="geometry" />
        </mxCell>
        <mxCell id="xyKEQfK3_lfIhWD5vXNs-47" value="return" style="html=1;verticalAlign=bottom;endArrow=open;dashed=1;endSize=8;rounded=0;fontColor=#000000;entryX=0.5;entryY=0.933;entryDx=0;entryDy=0;entryPerimeter=0;" edge="1" parent="1">
          <mxGeometry relative="1" as="geometry">
            <mxPoint x="150" y="904" as="sourcePoint" />
            <mxPoint x="588" y="903.95" as="targetPoint" />
          </mxGeometry>
        </mxCell>
        <mxCell id="xyKEQfK3_lfIhWD5vXNs-56" value="回调结果" style="text;html=1;align=center;verticalAlign=middle;resizable=0;points=[];autosize=1;strokeColor=none;fillColor=none;fontColor=#000000;" vertex="1" parent="1">
          <mxGeometry x="770" y="1000" width="60" height="20" as="geometry" />
        </mxCell>
        <mxCell id="xyKEQfK3_lfIhWD5vXNs-58" value="return" style="html=1;verticalAlign=bottom;endArrow=open;dashed=1;endSize=8;rounded=0;fontColor=#000000;" edge="1" parent="1">
          <mxGeometry relative="1" as="geometry">
            <mxPoint x="595" y="1062.9999999999998" as="sourcePoint" />
            <mxPoint x="729.4999999999998" y="1062.9999999999998" as="targetPoint" />
          </mxGeometry>
        </mxCell>
        <mxCell id="xyKEQfK3_lfIhWD5vXNs-59" value="返回ok" style="html=1;verticalAlign=bottom;endArrow=open;dashed=1;endSize=8;rounded=0;fontColor=#000000;" edge="1" parent="1">
          <mxGeometry relative="1" as="geometry">
            <mxPoint x="735" y="1070.0000000000002" as="sourcePoint" />
            <mxPoint x="869.4999999999998" y="1070.0000000000002" as="targetPoint" />
          </mxGeometry>
        </mxCell>
        <mxCell id="xyKEQfK3_lfIhWD5vXNs-64" value="&lt;font color=&quot;#000000&quot;&gt;return&lt;/font&gt;" style="html=1;verticalAlign=bottom;endArrow=open;dashed=1;endSize=8;rounded=0;fontColor=#FF6666;exitX=1;exitY=0.667;exitDx=0;exitDy=0;exitPerimeter=0;" edge="1" parent="1" source="xyKEQfK3_lfIhWD5vXNs-62" target="7baba1c4bc27f4b0-5">
          <mxGeometry relative="1" as="geometry">
            <mxPoint x="580" y="1200" as="sourcePoint" />
            <mxPoint x="500" y="1200" as="targetPoint" />
          </mxGeometry>
        </mxCell>
        <mxCell id="xyKEQfK3_lfIhWD5vXNs-69" value="" style="endArrow=classic;html=1;rounded=0;fontColor=#000000;exitX=1.438;exitY=0.399;exitDx=0;exitDy=0;exitPerimeter=0;" edge="1" parent="1">
          <mxGeometry width="50" height="50" relative="1" as="geometry">
            <mxPoint x="154.37999999999988" y="1280.88" as="sourcePoint" />
            <mxPoint x="589.5" y="1280.88" as="targetPoint" />
          </mxGeometry>
        </mxCell>
        <mxCell id="xyKEQfK3_lfIhWD5vXNs-70" value="取消订单" style="text;html=1;align=center;verticalAlign=middle;resizable=0;points=[];autosize=1;strokeColor=none;fillColor=none;fontColor=#000000;" vertex="1" parent="1">
          <mxGeometry x="330" y="1260" width="60" height="20" as="geometry" />
        </mxCell>
        <mxCell id="xyKEQfK3_lfIhWD5vXNs-71" value="" style="endArrow=classic;html=1;rounded=0;fontColor=#000000;exitX=1.246;exitY=0.524;exitDx=0;exitDy=0;exitPerimeter=0;" edge="1" parent="1">
          <mxGeometry width="50" height="50" relative="1" as="geometry">
            <mxPoint x="599.46" y="1301.92" as="sourcePoint" />
            <mxPoint x="862" y="1302" as="targetPoint" />
          </mxGeometry>
        </mxCell>
        <mxCell id="xyKEQfK3_lfIhWD5vXNs-72" value="关单" style="text;html=1;align=center;verticalAlign=middle;resizable=0;points=[];autosize=1;strokeColor=none;fillColor=none;fontColor=#000000;" vertex="1" parent="1">
          <mxGeometry x="690" y="1280" width="40" height="20" as="geometry" />
        </mxCell>
      </root>
    </mxGraphModel>
  </diagram>
</mxfile>
